# xmcd
#
# Track frame offsets:
#	180
#	13166
#	25649
#	37286
#	49173
#	63148
#	75015
#	88270
#	102063
#	112944
#	127828
#	138326
#	149702
#	160279
#	172332
#
# Disc length: 2467
#
# Revision: 3
# Processed by: cddbd v1.5.1PL0 Copyright (c) Steve Scherf et al.
# Submitted via: audiograbber 1.83.01
# Normalized: r2:DSETVAR1
#
DISCID=c409a10f
DTITLE=Various Artist - Soul Classics 1967 - (Volume 03)
DYEAR=1999
DGENRE=Soul
TTITLE0=Otis Redding and Carla Thomas - Knock On Wood.
TTITLE1=Aretha Franklin - (You Make Me Feel Like) A Natural Woman
TTITLE2=Albert King - Crosscut Saw
TTITLE3=Sam and Dave - Soul Man
TTITLE4=Percy Sledge - Love Me Tender
TTITLE5=Wilson Pickett - Funky Broadway
TTITLE6=King Curtis - Memphis Soul Stew
TTITLE7=Otis Redding and Carla Thomas - Tramp
TTITLE8=Aretha Franklin - Respect
TTITLE9=Sam and Dave - When Something Is Wrong With My Baby
TTITLE10=Arthur Conley - Sweet Soul Music
TTITLE11=Wilson Pickett - I Found A Love - Pt. 1
TTITLE12=The Bar-Kays - Soul Finger
TTITLE13=Otis Redding - Shake
TTITLE14=Aretha Franklin - I Never Loved A Man (The Way I Love You)
EXTD=
EXTT0=
EXTT1=
EXTT2=
EXTT3=
EXTT4=
EXTT5=
EXTT6=
EXTT7=
EXTT8=
EXTT9=
EXTT10=
EXTT11=
EXTT12=
EXTT13=
EXTT14=
PLAYORDER=
